<svg width="23" height="23" viewBox="0 0 23 23" fill="none" xmlns="http://www.w3.org/2000/svg">
<path fill-rule="evenodd" clip-rule="evenodd" d="M16.5954 6.5571C16.8785 6.27397 16.8785 5.81493 16.5954 5.5318C16.3123 5.24867 15.8532 5.24867 15.5701 5.5318L11.0636 10.0383L6.55706 5.53184C6.27393 5.24871 5.81489 5.24871 5.53176 5.53184C5.24863 5.81497 5.24863 6.27401 5.53176 6.55714L10.0383 11.0636L5.5318 15.5701C5.24867 15.8532 5.24867 16.3123 5.5318 16.5954C5.81493 16.8785 6.27397 16.8785 6.5571 16.5954L11.0636 12.0889L15.5701 16.5954C15.8532 16.8786 16.3122 16.8786 16.5954 16.5954C16.8785 16.3123 16.8785 15.8533 16.5954 15.5701L12.0889 11.0636L16.5954 6.5571Z" fill="#EB5757"/>
</svg>
