<svg width="16" height="16" viewBox="0 0 16 16" fill="none" xmlns="http://www.w3.org/2000/svg">
<path fill-rule="evenodd" clip-rule="evenodd" d="M8.54815 0.725C8.54815 0.324594 8.22355 0 7.82314 0C7.42274 0 7.09815 0.324594 7.09815 0.725V7.0982L0.725 7.0982C0.324594 7.0982 0 7.4228 0 7.8232C0 8.22361 0.324594 8.5482 0.725 8.5482H7.09815V14.9213C7.09815 15.3217 7.42274 15.6463 7.82314 15.6463C8.22355 15.6463 8.54815 15.3217 8.54815 14.9213V8.5482H14.9213C15.3217 8.5482 15.6463 8.22361 15.6463 7.8232C15.6463 7.42279 15.3217 7.0982 14.9213 7.0982L8.54815 7.0982V0.725Z" fill="#34BC48"/>
</svg>
